<?xml version="1.0" encoding="UTF-8"?>
<svg id="Ebene_1" xmlns="http://www.w3.org/2000/svg" version="1.1" xmlns:xlink="http://www.w3.org/1999/xlink" viewBox="0 0 454.4 164.7">
  <!-- Generator: Adobe Illustrator 30.0.0, SVG Export Plug-In . SVG Version: 2.1.1 Build 123)  -->
  <defs>
    <style>
      .st0 {
        fill: #889297;
      }

      .st1 {
        fill: #fff;
      }

      .st2 {
        fill: none;
      }

      .st3 {
        clip-path: url(#clippath);
      }
    </style>
    <clipPath id="clippath">
      <rect class="st2" x="27.2" y="36.4" width="400" height="92"/>
    </clipPath>
  </defs>
  <rect class="st1" x="3.6" width="448" height="161"/>
  <rect class="st1" x="3.2" y="12.4" width="448" height="140"/>
  <g class="st3">
    <g>
      <path class="st0" d="M316.6,69.6c-1.1-2.3-2.6-4.3-4.6-5.8-2-1.5-4.3-2.7-7.1-3.4-2.7-.8-5.7-1.1-8.9-1.1s-8,.7-11.3,2.2c-3.3,1.4-6.2,3.4-8.6,5.9-2.3,2.5-4.2,5.4-5.4,8.7-1.2,3.3-1.9,6.8-1.9,10.5,0,6.3,2,11.5,6,14.7,3.9,3.1,9.3,4.7,15.8,4.7s8.2-.7,11.5-2.1c3.4-1.4,6.3-3.8,8.7-6.3,2.4-2.5,4.2-5.4,5.5-8.8,1.2-3.3,1.9-6.9,1.9-10.7s-.5-5.9-1.6-8.3M303.5,83.7c-.5,2-1.3,3.9-2.4,5.6-1,1.7-2.4,3.1-4,4.3-1.6,1.1-3.5,1.7-5.7,1.7s-2.6-.2-3.6-.7c-1-.5-1.9-1.1-2.6-1.9-.7-.8-1.3-1.8-1.6-2.8-.4-1.1-.5-2.2-.5-3.4,0-1.8.3-3.6.8-5.6.5-2,1.3-3.9,2.3-5.5,1-1.7,2.3-3.1,4-4.2,1.6-1.1,3.5-1.7,5.6-1.7,3.2,0,5.4.8,6.7,2.3,1.3,1.6,2,3.7,2,6.4s-.3,3.7-.8,5.7"/>
      <path class="st0" d="M239.4,75.2c1-1.7,2.3-3.1,4-4.2,1.6-1.1,3.5-1.7,5.6-1.7,3.2,0,5.4.8,6.7,2.3,1.3,1.6,1.9,3.7,1.9,6.4l14-.2c0-3.2-.5-5.9-1.6-8.3-1.1-2.3-2.6-4.3-4.6-5.8-2-1.5-4.3-2.7-7.1-3.4-2.7-.8-5.7-1.1-8.9-1.1s-5.8-.4-18.5.9c-4.1.4-7.3,1.2-10.4,2.7-2.1,1-4.9,2.5-6.3,4.2l1.5-6.2h-13.9l-10.1,43.2h14.5l4.3-18.3c.4-1.7,1-3.4,1.7-5,.7-1.5,1.6-3,2.8-4.2,1.1-1.2,2.6-2.2,4.2-2.9,1.7-.7,3.8-1.1,6.2-1.1h.3c-.6,1.1-1.1,2.2-1.5,3.3-1.2,3.3-1.9,6.8-1.9,10.5,0,6.3,2,11.5,6,14.7,3.9,3.1,9.3,4.7,15.8,4.7s8.2-.7,11.5-2.1c3.4-1.4,6.3-3.8,8.7-6.3,2.4-2.5,4.6-6.3,5.8-9.6h-15.1c-1,2.5-3,4.7-4.6,5.8-1.6,1.1-3.5,1.7-5.7,1.7s-2.6-.2-3.6-.7c-1.1-.5-1.9-1.1-2.6-1.9-.7-.8-1.2-1.8-1.6-2.8-.4-1.1-.5-2.2-.5-3.4,0-1.8.3-3.6.8-5.6.5-2,1.3-3.9,2.3-5.5"/>
      <path class="st0" d="M187,101.2c0-.8,0-1.8.1-2.8,0-1,.3-1.9.5-2.7l4.4-16.7c.7-2.7,1.1-5.1,1.1-7.1,0-2.5-.6-4.6-2-6.1-1.4-1.5-3.1-2.7-5.2-3.5-2.1-.8-4.4-1.3-6.8-1.6-2.5-.3-4.8-.4-7-.4s-.7,0-1,0h0s-34.9.4-34.9.4l-14.2,27.8-1.5-27.8h-14.3l-13.7,28-1.7-28-37.9-.6c-3.6,0-6.9.2-10.3.7-2.6.4-5,1.2-7.1,2.2-2.1,1.1-3.9,2.5-5.2,4.3-1.3,1.9-2,4.2-2,7.1s.5,3.7,1.5,5.1c.9,1.3,2.2,2.5,3.7,3.4,1.5.9,3.3,1.6,5.2,2.1,1.9.5,3.9,1,5.8,1.4,4.7.8,8.5,1.7,11.2,2.6,2.4.8,3.6,1.9,3.6,3.3s-.2,1.6-.7,2.1c-.5.6-1.2,1.1-1.9,1.5-.8.4-1.7.7-2.7.8-1,.2-2,.3-2.9.3s-2.5-.1-3.7-.4c-1.2-.2-2.2-.6-3.1-1.2-.9-.5-1.6-1.2-2.1-2-.5-.8-.8-1.7-.8-2.8v-.7h-14.2v.7c.2,2.9,1,5.4,2.4,7.4,1.4,1.9,3.3,3.5,5.5,4.7,2.2,1.2,4.9,1.9,7.7,2.4,2.8.5,5.7.7,8.5.7s5.7-.2,8.4-.7c2.8-.5,5.1-1.2,7.3-2.4,2.2-1.2,4-2.8,5.3-4.7,1.4-2,2.1-4.5,2.1-7.3s-.5-3.9-1.5-5.3c-.9-1.4-2.2-2.6-3.7-3.5-1.5-.9-3.2-1.7-5.2-2.2-1.9-.5-3.9-1-5.8-1.4-1.9-.4-3.8-.7-5.7-1.1-1.8-.3-3.5-.7-4.8-1.1-1.3-.4-2.4-.9-3.3-1.5-.7-.5-1.1-1.2-1.1-2s.2-1.2.6-1.6c.4-.4,1-.8,1.6-1,.7-.3,1.4-.4,2.3-.5.8,0,1.6-.1,2.4-.1h0s27,.4,27,.4l4.2,34.6h14.7l13.9-28.4,1.6,28.4h15l19.5-34.5,26.2-.5c.5,0,1.1,0,1.7.2.9.1,1.8.4,2.6.7.8.3,1.4.8,1.9,1.4.5.5.7,1.2.7,2.1s-.3,2-.9,2.5c-.7.6-1.7,1.1-3.2,1.4-1.5.3-3.4.6-5.7.8-2.3.1-5,.4-8.3.7-6,.6-10.8,2.2-14.1,4.6-3.4,2.5-5.2,6-5.2,10.2s.3,3,1,4.4c.7,1.4,1.7,2.9,3.1,3.9,1.4,1,3.2,2.1,5.2,2.7,2,.6,4.5.9,7.2.9s5.7-.9,8.5-1.7c2.2-.7,4.2-1.7,5.9-3.1v3.1h15l-.2-.6c-.3-.8-.4-1.6-.4-2.2M175.3,87.5c-.4,1.1-.8,2.2-1.4,3.3-.5,1.1-1.3,2-2.2,2.8-.9.8-2.1,1.5-3.4,2.1-1.4.5-3,.8-5,.8s-3.5-.4-4.9-1.1c-1.3-.7-1.9-1.6-1.9-2.9s.3-2.1.7-2.8c.5-.7,1.2-1.3,2-1.8.9-.5,1.9-.8,3-1,1.2-.2,2.4-.4,3.6-.5,2-.1,4-.3,5.9-.4,1.5-.1,3-.5,4.3-1l-.9,2.6Z"/>
      <path class="st0" d="M377.5,57.9l10.7-14.5h25.1s-11,14.4-11,14.4l11.3,14.3h-26.6l-9.6-14.2ZM383.2,36.4l-15.3,21.7,15.8,21.4h43.4l-16.3-21.4,16.4-21.8h-44Z"/>
      <path class="st0" d="M377.5,106.7l10.7-14.5h25.1s-11,14.4-11,14.4l11.3,14.3h-26.6l-9.6-14.2h0ZM383.2,85.2l-15.3,21.7,15.8,21.4h43.4l-16.3-21.4,16.4-21.7h-44,0Z"/>
      <path class="st0" d="M358.3,96.6h-26.6l11.3-14.3-11-14.4h25.2l10.7,14.5-9.6,14.2ZM362.2,60.8h-44l16.4,21.7-16.3,21.4h43.4l15.8-21.4-15.3-21.7h0Z"/>
    </g>
  </g>
</svg>