<?xml version="1.0" encoding="UTF-8"?>
<svg id="Ebene_1" xmlns="http://www.w3.org/2000/svg" version="1.1" xmlns:xlink="http://www.w3.org/1999/xlink" viewBox="0 0 454.4 164.7">
  <!-- Generator: Adobe Illustrator 30.0.0, SVG Export Plug-In . SVG Version: 2.1.1 Build 123)  -->
  <defs>
    <style>
      .st0 {
        fill: #fff;
      }

      .st1 {
        fill: none;
      }

      .st2 {
        fill: #006bad;
      }

      .st3 {
        clip-path: url(#clippath);
      }
    </style>
    <clipPath id="clippath">
      <rect class="st1" x="27.6" y="24" width="400" height="113"/>
    </clipPath>
  </defs>
  <rect class="st0" x="3.6" width="448" height="161"/>
  <g class="st3">
    <g>
      <path class="st2" d="M316.8,132.8c.6,0,1.2-.5,1.2-1.2s-.5-1.2-1.2-1.2-1.2.5-1.2,1.2.5,1.2,1.2,1.2ZM313.6,121.1l-4.3,9.8-4.3-9.8h-1.6l5.2,11.5-.5,1.1c-.7,1.5-1.4,1.9-2.4,1.9s-1.5-.3-2.1-.9l-.7,1.2c.7.7,1.7,1,2.8,1,1.6,0,2.9-.7,3.8-3l5.8-12.9h-1.5ZM296.2,131.5c-1.8,0-2.9-.8-2.9-2.2s.7-2.1,3-2.1h3.6v1.9c-.6,1.5-1.9,2.4-3.7,2.4M296.8,121c-1.8,0-3.5.6-4.7,1.6l.7,1.2c.9-.8,2.4-1.4,3.8-1.4,2.2,0,3.3,1.1,3.3,3.1v.7h-3.7c-3.3,0-4.5,1.5-4.5,3.3s1.6,3.4,4.2,3.4,3.3-.7,4-1.9v1.8h1.5v-7.2c0-3-1.7-4.5-4.7-4.5M276.5,131.2v-12.6h4.5c4.1,0,6.7,2.6,6.7,6.3s-2.6,6.3-6.7,6.3h-4.5ZM274.9,132.6h6.3c4.9,0,8.2-3.2,8.2-7.7s-3.3-7.7-8.2-7.7h-6.3v15.4ZM265.1,121.1l-4.3,9.8-4.3-9.8h-1.6l5.2,11.5-.5,1.1c-.7,1.5-1.4,1.9-2.4,1.9s-1.5-.3-2.1-.9l-.7,1.2c.7.7,1.7,1,2.8,1,1.6,0,2.9-.7,3.8-3l5.8-12.9h-1.5ZM249.3,123.4v-2.3h-1.5v11.5h1.6v-5.9c0-2.7,1.5-4.3,3.9-4.3s.2,0,.4,0v-1.5c-2.1,0-3.6.8-4.3,2.3M239,122.3c2.3,0,3.9,1.6,4.1,3.8h-8.2c.2-2.3,1.8-3.8,4.1-3.8ZM244.6,126.9c0-3.5-2.4-5.9-5.6-5.9s-5.6,2.4-5.6,5.9,2.5,5.9,6.1,5.9,3.4-.7,4.5-1.9l-.9-1c-.9,1-2.1,1.5-3.5,1.5-2.5,0-4.4-1.6-4.5-4h9.7c0-.2,0-.3,0-.5M231.1,121.1l-4.4,9.8-4.3-9.8h-1.6l5.1,11.5h1.6l5.1-11.5h-1.5ZM210.5,131.2v-5.7h7.9v-1.4h-7.9v-5.5h8.9v-1.4h-10.5v15.4h10.9v-1.4h-9.2ZM198.2,132.8c.6,0,1.2-.5,1.2-1.2s-.5-1.2-1.2-1.2-1.2.5-1.2,1.2.5,1.2,1.2,1.2ZM195.1,121.1l-4.3,9.8-4.3-9.8h-1.6l5.2,11.5-.5,1.1c-.7,1.5-1.4,1.9-2.4,1.9s-1.5-.3-2.1-.9l-.7,1.2c.7.7,1.7,1,2.8,1,1.6,0,2.9-.7,3.8-3l5.8-12.9h-1.5ZM177.7,131.5c-1.8,0-2.9-.8-2.9-2.2s.7-2.1,3-2.1h3.6v1.9c-.6,1.5-1.9,2.4-3.7,2.4M178.2,121c-1.8,0-3.5.6-4.7,1.6l.7,1.2c.9-.8,2.4-1.4,3.8-1.4,2.2,0,3.3,1.1,3.3,3.1v.7h-3.7c-3.3,0-4.5,1.5-4.5,3.3s1.6,3.4,4.2,3.4,3.3-.7,4-1.9v1.8h1.5v-7.2c0-3-1.7-4.5-4.7-4.5M170.9,117.3l-4.5,13.3-4.5-13.3h-1.5l-4.6,13.2-4.4-13.2h-1.7l5.2,15.4h1.7l4.5-13.1,4.5,13.1h1.7l5.2-15.4h-1.6ZM137.9,123.4v-2.3h-1.5v11.5h1.6v-5.9c0-2.7,1.5-4.3,3.9-4.3s.2,0,.4,0v-1.5c-2.1,0-3.6.8-4.3,2.3M127.7,122.3c2.3,0,3.9,1.6,4.1,3.8h-8.2c.2-2.3,1.8-3.8,4.1-3.8M133.3,126.9c0-3.5-2.4-5.9-5.6-5.9s-5.6,2.4-5.6,5.9,2.5,5.9,6.1,5.9,3.4-.7,4.5-1.9l-.9-1c-.9,1-2.1,1.5-3.5,1.5-2.5,0-4.4-1.6-4.5-4h9.7c0-.2,0-.3,0-.5M120.2,130.8c-.4.4-1.1.6-1.7.6-1.3,0-2-.7-2-2.1v-6.9h3.5v-1.3h-3.5v-2.5h-1.6v2.5h-2.1v1.3h2.1v7c0,2.1,1.2,3.4,3.4,3.4s1.8-.3,2.4-.8l-.6-1.1h0ZM111.6,130.8c-.4.4-1.1.6-1.7.6-1.3,0-2-.7-2-2.1v-6.9h3.5v-1.3h-3.5v-2.5h-1.6v2.5h-2.1v1.3h2.1v7c0,2.1,1.2,3.4,3.4,3.4s1.8-.3,2.4-.8l-.6-1.1h0ZM97.3,122.3c2.3,0,3.9,1.6,4.1,3.8h-8.2c.2-2.3,1.8-3.8,4.1-3.8ZM102.9,126.9c0-3.5-2.3-5.9-5.6-5.9s-5.6,2.4-5.6,5.9,2.5,5.9,6.1,5.9,3.4-.7,4.5-1.9l-.9-1c-.9,1-2.1,1.5-3.5,1.5-2.5,0-4.4-1.6-4.5-4h9.7c0-.2,0-.3,0-.5M83.6,131.3h-5.4v-5.8h5.4c2.7,0,4.2.9,4.2,2.9s-1.5,2.9-4.2,2.9ZM83.1,118.6c2.5,0,3.9.9,3.9,2.8s-1.4,2.8-3.9,2.8h-4.9v-5.6h4.9ZM86.3,124.7c1.4-.6,2.4-1.7,2.4-3.5,0-2.5-2-3.9-5.4-3.9h-6.6v15.4h7.1c3.8,0,5.8-1.5,5.8-4.1s-1.2-3.4-3.2-3.8M61.7,122.3c2.3,0,3.9,1.6,4.1,3.8h-8.2c.2-2.3,1.8-3.8,4.1-3.8ZM67.3,126.9c0-3.5-2.4-5.9-5.6-5.9s-5.6,2.4-5.6,5.9,2.5,5.9,6.1,5.9,3.4-.7,4.5-1.9l-.9-1c-.9,1-2.1,1.5-3.5,1.5-2.5,0-4.4-1.6-4.5-4h9.7c0-.2,0-.3,0-.5M48.2,121c-2,0-3.5.8-4.3,2.1v-6.7h-1.6v16.3h1.6v-6.1c0-2.6,1.6-4.2,4-4.2s3.5,1.2,3.5,3.7v6.5h1.6v-6.7c0-3.3-1.9-4.9-4.7-4.9M33,132.6h1.6v-14h5.4v-1.4h-12.4v1.4h5.4v14Z"/>
      <path class="st2" d="M317.1,57.4c-1.1-2.3-2.6-4.3-4.6-5.9-2-1.5-4.3-2.7-7.1-3.5-2.7-.8-5.7-1.1-8.9-1.1s-8,.7-11.3,2.2c-3.3,1.4-6.2,3.4-8.6,5.9-2.3,2.5-4.2,5.4-5.4,8.7-1.2,3.3-1.9,6.8-1.9,10.5,0,6.3,2,11.6,6,14.7,3.9,3.1,9.3,4.7,15.8,4.7s8.2-.7,11.5-2.1c3.4-1.4,6.3-3.8,8.7-6.3,2.4-2.5,4.2-5.4,5.5-8.8,1.2-3.3,1.9-7,1.9-10.8s-.5-6-1.6-8.3M303.9,71.5c-.5,2-1.3,3.9-2.4,5.6-1,1.7-2.4,3.1-4,4.3-1.6,1.1-3.5,1.7-5.7,1.7s-2.6-.2-3.6-.7c-1-.5-1.9-1.1-2.6-1.9-.7-.8-1.3-1.8-1.6-2.8-.4-1.1-.5-2.2-.5-3.4,0-1.8.3-3.7.8-5.7.5-2,1.3-3.9,2.3-5.6,1-1.7,2.3-3.1,4-4.2,1.6-1.1,3.5-1.7,5.6-1.7,3.2,0,5.4.8,6.7,2.3,1.3,1.6,1.9,3.7,1.9,6.4s-.3,3.7-.8,5.7"/>
      <path class="st2" d="M239.8,63c1-1.7,2.3-3.1,4-4.2,1.6-1.1,3.5-1.7,5.6-1.7,3.2,0,5.4.8,6.7,2.3,1.3,1.6,1.9,3.7,1.9,6.4l14-.2c0-3.2-.5-6-1.6-8.3-1.1-2.3-2.6-4.3-4.6-5.9-2-1.5-4.3-2.7-7.1-3.5-2.7-.8-5.7-1.2-8.9-1.2s-5.8-.4-18.5.9c-4.1.4-7.3,1.2-10.4,2.7-2.1,1-4.9,2.6-6.3,4.2l1.5-6.2h-13.9l-10.1,43.4h14.5l4.3-18.3c.4-1.7,1-3.4,1.7-5,.7-1.6,1.6-3,2.8-4.2,1.1-1.2,2.6-2.2,4.2-2.9,1.7-.7,3.8-1.1,6.2-1.1h.3c-.6,1.1-1.1,2.2-1.5,3.3-1.2,3.3-1.9,6.8-1.9,10.5,0,6.3,2,11.6,6,14.7,3.9,3.1,9.3,4.7,15.8,4.7s8.2-.7,11.5-2.1c3.4-1.4,6.3-3.8,8.7-6.3,2.4-2.5,4.6-6.3,5.8-9.6h-15.1c-1,2.6-3,4.7-4.6,5.9-1.6,1.1-3.5,1.7-5.7,1.7s-2.6-.2-3.6-.7c-1.1-.5-1.9-1.1-2.6-1.9-.7-.8-1.2-1.8-1.6-2.8-.4-1.1-.5-2.2-.5-3.4,0-1.8.3-3.7.8-5.7.5-2,1.3-3.9,2.3-5.6"/>
      <path class="st2" d="M187.5,89.1c0-.8,0-1.8.1-2.8,0-1,.3-1.9.5-2.7l4.4-16.8c.7-2.7,1.1-5.2,1.1-7.2,0-2.5-.6-4.6-2-6.2-1.4-1.5-3.1-2.7-5.2-3.5-2.1-.8-4.4-1.3-6.8-1.6-2.5-.3-4.8-.4-7-.4s-.7,0-1,0h0s-34.9.4-34.9.4l-14.2,27.9-1.5-27.9h-14.3l-13.7,28.1-1.7-28.2-37.9-.6c-3.6,0-6.9.2-10.3.7-2.6.4-5,1.2-7.1,2.2-2.1,1.1-3.9,2.5-5.2,4.3-1.3,1.9-2,4.2-2,7.1s.5,3.7,1.5,5.1c.9,1.3,2.2,2.5,3.7,3.4,1.5.9,3.3,1.6,5.2,2.1,1.9.5,3.9,1,5.8,1.4,4.7.9,8.5,1.7,11.2,2.6,2.4.8,3.6,1.9,3.6,3.3s-.2,1.6-.7,2.2c-.5.6-1.2,1.1-1.9,1.5-.8.4-1.7.7-2.7.8-1,.2-2,.3-2.9.3s-2.5-.1-3.7-.4c-1.2-.2-2.2-.6-3.1-1.2-.9-.5-1.6-1.2-2.1-2-.5-.8-.8-1.7-.8-2.9v-.7h-14.2v.7c.2,3,1,5.5,2.4,7.4,1.4,1.9,3.3,3.5,5.5,4.7,2.2,1.2,4.9,2,7.7,2.5,2.8.5,5.7.7,8.5.7s5.7-.2,8.4-.7c2.8-.5,5.1-1.2,7.3-2.4,2.2-1.2,4-2.8,5.3-4.8,1.4-2,2.1-4.5,2.1-7.4s-.5-3.9-1.5-5.3c-.9-1.4-2.2-2.6-3.7-3.6-1.5-.9-3.2-1.7-5.2-2.2-1.9-.5-3.9-1-5.8-1.4-1.9-.4-3.8-.7-5.7-1.1-1.8-.3-3.5-.7-4.8-1.1-1.3-.4-2.4-.9-3.3-1.5-.7-.5-1.1-1.2-1.1-2s.2-1.2.6-1.6c.4-.4,1-.8,1.6-1,.7-.3,1.4-.4,2.3-.5.8,0,1.6-.1,2.4-.1h0s27,.4,27,.4l4.2,34.7h14.7l13.9-28.5,1.6,28.5h15l19.5-34.7,26.2-.5c.5,0,1.1,0,1.7.2.9.1,1.8.4,2.6.7.8.3,1.4.8,1.9,1.4.5.5.7,1.2.7,2.1s-.3,2-.9,2.5c-.7.6-1.7,1.1-3.2,1.4-1.5.3-3.4.6-5.7.8-2.3.1-5,.4-8.3.7-6,.6-10.8,2.2-14.1,4.7-3.4,2.5-5.2,6-5.2,10.2s.3,3,1,4.4c.7,1.4,1.7,2.9,3.1,4,1.4,1,3.2,2.1,5.2,2.7,2,.6,4.5.9,7.2.9s5.7-.9,8.5-1.7c2.2-.7,4.2-1.7,5.9-3.1v3.1h15l-.2-.6c-.3-.8-.4-1.6-.4-2.2M175.7,75.3c-.4,1.1-.8,2.2-1.4,3.3-.5,1.1-1.3,2-2.2,2.8-.9.8-2.1,1.5-3.4,2.1-1.4.5-3,.8-5,.8s-3.5-.4-4.9-1.1c-1.3-.7-1.9-1.6-1.9-2.9s.3-2.1.7-2.8c.5-.7,1.2-1.3,2-1.8.9-.5,1.9-.8,3-1,1.2-.2,2.4-.4,3.6-.5,2-.1,4-.3,5.9-.4,1.5-.1,3-.5,4.3-1l-.9,2.6Z"/>
      <path class="st2" d="M377.9,45.6l10.7-14.5h25.1s-11,14.4-11,14.4l11.3,14.3h-26.6l-9.6-14.2ZM383.6,24l-15.3,21.8,15.8,21.5h43.4l-16.3-21.5,16.4-21.8h-44Z"/>
      <path class="st2" d="M377.9,94.7l10.7-14.5h25.1s-11,14.4-11,14.4l11.3,14.3h-26.6l-9.6-14.2h0ZM383.6,73l-15.3,21.8,15.8,21.5h43.4l-16.3-21.5,16.4-21.8h-44,0Z"/>
      <path class="st2" d="M358.8,84.5h-26.6l11.3-14.3-11-14.5h25.2l10.7,14.5-9.6,14.2ZM362.7,48.6h-44l16.4,21.8-16.3,21.5h43.4l15.8-21.5-15.3-21.8h0Z"/>
    </g>
  </g>
</svg>
